<svg id="Calque_1" data-name="Calque 1" xmlns="http://www.w3.org/2000/svg" viewBox="0 0 483.62 501.05"><defs><style>.cls-1{fill:#1c3919;}.cls-2{fill:#e9e9e9;}.cls-3{fill:#565656;}.cls-4{fill:#112310;}.cls-5{fill:#c1c1c1;}.cls-6{fill:#b10000;}.cls-7{fill:#9b9b9b;}.cls-8{fill:#4f4f4f;}.cls-9{fill:#bc8f8f;}.cls-10{fill:#a56574;}</style></defs><title>calendar</title><polygon class="cls-1" points="0 303.15 340.6 501.05 411.3 194.03 76.51 0 0 303.15"/><polygon class="cls-2" points="9.36 300.75 334.46 489.65 401.94 196.6 82.39 11.4 9.36 300.75"/><polygon class="cls-3" points="340.6 501.05 412.03 420.14 483.62 417.65 411.3 194.03 340.6 501.05"/><polygon class="cls-1" points="347.87 486.85 411.3 414.69 476.36 412.72 411.3 210.98 347.87 486.85"/><polygon class="cls-4" points="347.87 486.85 411.3 414.69 476.36 412.72 378.01 355.76 347.87 486.85"/><polygon class="cls-5" points="68.81 65.22 388.93 253.09 401.94 196.6 82.39 11.4 68.81 65.22"/><polygon class="cls-1" points="79.1 107.66 107.85 124.53 111.27 109.65 82.77 93.13 79.1 107.66"/><polygon class="cls-1" points="124.6 134.37 153.34 151.23 156.77 136.36 128.26 119.84 124.6 134.37"/><polygon class="cls-1" points="167.06 159.81 195.81 176.68 199.23 161.8 170.73 145.28 167.06 159.81"/><polygon class="cls-1" points="210.79 185.03 239.54 201.9 242.97 187.03 214.46 170.5 210.79 185.03"/><polygon class="cls-1" points="255.67 211.24 284.42 228.11 287.85 213.24 259.34 196.71 255.67 211.24"/><polygon class="cls-6" points="294.26 234.98 323 251.85 326.43 236.97 297.92 220.45 294.26 234.98"/><polygon class="cls-6" points="332.96 257.76 361.71 274.63 365.14 259.75 336.63 243.23 332.96 257.76"/><ellipse class="cls-1" cx="93.02" cy="163.43" rx="10.5" ry="8.21" transform="translate(-107.33 201.61) rotate(-71.74)"/><ellipse class="cls-1" cx="86.63" cy="190.55" rx="10.5" ry="8.21" transform="translate(-137.47 214.15) rotate(-71.74)"/><ellipse class="cls-1" cx="81.03" cy="217.67" rx="10.5" ry="8.21" transform="translate(-167.07 227.45) rotate(-71.73)"/><ellipse class="cls-1" cx="75.25" cy="245.55" rx="10.5" ry="8.21" transform="translate(-197.51 241.1) rotate(-71.73)"/><ellipse class="cls-1" cx="139.91" cy="190.66" rx="10.5" ry="8.21" transform="translate(-100.99 264.81) rotate(-71.73)"/><ellipse class="cls-1" cx="133.52" cy="217.78" rx="10.5" ry="8.21" transform="translate(-131.13 277.39) rotate(-71.74)"/><ellipse class="cls-1" cx="127.92" cy="244.9" rx="10.5" ry="8.21" transform="translate(-160.73 290.69) rotate(-71.74)"/><ellipse class="cls-1" cx="122.14" cy="272.77" rx="10.5" ry="8.21" transform="translate(-191.17 304.33) rotate(-71.74)"/><ellipse class="cls-1" cx="181.33" cy="214.23" rx="10.5" ry="8.21" transform="translate(-94.94 320.35) rotate(-71.74)"/><ellipse class="cls-1" cx="174.94" cy="241.35" rx="10.5" ry="8.21" transform="translate(-125.08 332.9) rotate(-71.74)"/><ellipse class="cls-1" cx="169.34" cy="268.47" rx="10.5" ry="8.21" transform="translate(-154.68 346.19) rotate(-71.73)"/><ellipse class="cls-1" cx="163.56" cy="296.35" rx="10.5" ry="8.21" transform="translate(-185.12 359.87) rotate(-71.74)"/><ellipse class="cls-1" cx="66.97" cy="275.97" rx="10.5" ry="8.21" transform="translate(-232.09 254.11) rotate(-71.73)"/><ellipse class="cls-1" cx="113.86" cy="303.2" rx="10.5" ry="8.21" transform="translate(-225.75 317.36) rotate(-71.74)"/><ellipse class="cls-1" cx="155.28" cy="326.78" rx="10.5" ry="8.21" transform="translate(-219.7 372.86) rotate(-71.73)"/><ellipse class="cls-1" cx="223.94" cy="238.44" rx="10.5" ry="8.21" transform="translate(-88.67 377.43) rotate(-71.74)"/><ellipse class="cls-1" cx="217.56" cy="265.57" rx="10.5" ry="8.21" transform="translate(-118.8 390.01) rotate(-71.74)"/><ellipse class="cls-1" cx="211.95" cy="292.69" rx="10.5" ry="8.21" transform="translate(-148.42 403.27) rotate(-71.73)"/><ellipse class="cls-1" cx="206.17" cy="320.56" rx="10.5" ry="8.21" transform="translate(-178.85 416.94) rotate(-71.74)"/><ellipse class="cls-7" cx="268.35" cy="265.28" rx="10.5" ry="8.21" transform="matrix(0.31, -0.95, 0.95, 0.31, -83.66, 438.03)"/><ellipse class="cls-7" cx="261.97" cy="292.4" rx="10.5" ry="8.21" transform="matrix(0.31, -0.95, 0.95, 0.31, -113.8, 450.6)"/><ellipse class="cls-7" cx="256.36" cy="319.53" rx="10.5" ry="8.21" transform="translate(-143.41 463.88) rotate(-71.73)"/><ellipse class="cls-7" cx="250.58" cy="347.4" rx="10.5" ry="8.21" transform="translate(-173.84 477.55) rotate(-71.74)"/><ellipse class="cls-8" cx="306.81" cy="286.26" rx="10.5" ry="8.21" transform="translate(-77.2 488.93) rotate(-71.73)"/><ellipse class="cls-8" cx="300.42" cy="313.39" rx="10.5" ry="8.21" transform="translate(-107.33 501.5) rotate(-71.73)"/><ellipse class="cls-8" cx="294.82" cy="340.51" rx="10.5" ry="8.21" transform="translate(-136.92 514.84) rotate(-71.74)"/><ellipse class="cls-8" cx="289.04" cy="368.38" rx="10.5" ry="8.21" transform="translate(-167.37 528.45) rotate(-71.73)"/><ellipse class="cls-8" cx="348.13" cy="310.95" rx="10.5" ry="8.21" transform="translate(-72.27 545.13) rotate(-71.73)"/><ellipse class="cls-8" cx="341.75" cy="338.07" rx="10.5" ry="8.21" transform="translate(-102.39 557.73) rotate(-71.74)"/><ellipse class="cls-8" cx="336.15" cy="365.2" rx="10.5" ry="8.21" transform="translate(-131.99 571.03) rotate(-71.74)"/><ellipse class="cls-8" cx="330.36" cy="393.07" rx="10.5" ry="8.21" transform="translate(-162.44 584.66) rotate(-71.74)"/><path class="cls-9" d="M111.63-.37h-.47c-12.33,0-24.35,15.46-25.65,28.43-1.1,11,6.33,16.6,10.42,18a2.87,2.87,0,0,0,1,.17,2.91,2.91,0,0,0,1-5.64c-.77-.28-7.47-3-6.58-12,1-10,10.95-23.2,19.86-23.2h.29a7.5,7.5,0,0,1,5.86,2.69,11.94,11.94,0,0,1,2.48,7.27A2.91,2.91,0,0,0,125,17.85c1.21-2,.45-7.24-1.59-11A13.43,13.43,0,0,0,111.63-.37ZM120,14.85h0Z" transform="translate(-16 1.05)"/><path class="cls-9" d="M134.61,12.53h-.47C121.81,12.52,109.79,28,108.49,41c-1.1,11,6.33,16.6,10.42,18a2.9,2.9,0,0,0,3.68-1.77,2.92,2.92,0,0,0-1.75-3.71c-.77-.28-7.47-3-6.58-12,1-10,10.95-23.2,19.86-23.2h.29A7.49,7.49,0,0,1,140.28,21a11.94,11.94,0,0,1,2.48,7.27A2.91,2.91,0,0,0,148,30.75c1.21-2,.45-7.23-1.59-11A13.42,13.42,0,0,0,134.61,12.53ZM143,27.75h0Z" transform="translate(-16 1.05)"/><path class="cls-9" d="M159,26.87h-.47c-12.33,0-24.35,15.46-25.65,28.43-1.1,11,6.33,16.6,10.42,18a2.87,2.87,0,0,0,1,.16,2.91,2.91,0,0,0,1-5.64c-.77-.28-7.47-3-6.58-12,1-10,10.95-23.19,19.86-23.19h.29a7.5,7.5,0,0,1,5.86,2.69,11.94,11.94,0,0,1,2.48,7.27,2.91,2.91,0,0,0,5.24,2.45c1.21-2,.45-7.23-1.59-11A13.42,13.42,0,0,0,159,26.87Zm8.4,15.22h0Z" transform="translate(-16 1.05)"/><path class="cls-9" d="M180.74,39.29h-.47c-12.33,0-24.35,15.46-25.65,28.43-1.1,11,6.33,16.6,10.42,18A2.91,2.91,0,0,0,167,80.26c-.77-.28-7.47-3-6.58-12,1-10,10.95-23.2,19.86-23.2h.29a7.49,7.49,0,0,1,5.86,2.69,11.93,11.93,0,0,1,2.48,7.27,2.91,2.91,0,0,0,5.24,2.45c1.21-2,.44-7.24-1.59-11A13.43,13.43,0,0,0,180.74,39.29Zm8.4,15.22h0Z" transform="translate(-16 1.05)"/><path class="cls-9" d="M203.74,52.56h-.47C190.94,52.55,178.92,68,177.62,81,176.52,92,184,97.58,188,99A2.91,2.91,0,0,0,190,93.53c-.77-.28-7.47-3-6.58-12,1-10,10.95-23.2,19.86-23.2h.29a7.49,7.49,0,0,1,5.86,2.69,12,12,0,0,1,2.48,7.27,2.9,2.9,0,0,0,5.23,2.45c1.21-2,.45-7.24-1.59-11A13.42,13.42,0,0,0,203.74,52.56Zm8.4,15.22h0Z" transform="translate(-16 1.05)"/><path class="cls-9" d="M227.79,66.44h-.47C215,66.43,203,81.9,201.67,94.86c-1.1,11,6.33,16.6,10.42,18a2.91,2.91,0,0,0,1.94-5.48c-.77-.28-7.47-3-6.58-12,1-10,10.95-23.19,19.86-23.19h.29a7.49,7.49,0,0,1,5.86,2.69,11.94,11.94,0,0,1,2.48,7.27,2.91,2.91,0,0,0,5.23,2.45c1.21-2,.45-7.24-1.59-11A13.43,13.43,0,0,0,227.79,66.44Zm8.4,15.22h0Z" transform="translate(-16 1.05)"/><path class="cls-9" d="M249,78.79h-.47c-12.33,0-24.35,15.46-25.65,28.43-1.1,11,6.33,16.6,10.42,18a2.89,2.89,0,0,0,3.68-1.77,2.91,2.91,0,0,0-1.74-3.71c-.77-.28-7.47-3-6.57-12,1-10,10.95-23.2,19.86-23.2h.29a7.49,7.49,0,0,1,5.86,2.69,11.94,11.94,0,0,1,2.48,7.27A2.91,2.91,0,0,0,262.39,97c1.21-2,.45-7.24-1.59-11A13.42,13.42,0,0,0,249,78.79ZM257.42,94h0Z" transform="translate(-16 1.05)"/><path class="cls-9" d="M272.26,92.56h-.47c-12.33,0-24.35,15.46-25.65,28.43-1.1,11,6.33,16.6,10.42,18a2.94,2.94,0,0,0,1,.16,2.91,2.91,0,0,0,1-5.64c-.77-.28-7.47-3-6.58-12,1-10,10.95-23.19,19.86-23.19h.29a7.49,7.49,0,0,1,5.86,2.69,11.94,11.94,0,0,1,2.48,7.27,2.91,2.91,0,0,0,5.23,2.45c1.21-2,.45-7.24-1.59-11A13.43,13.43,0,0,0,272.26,92.56Zm8.4,15.22h0Z" transform="translate(-16 1.05)"/><path class="cls-9" d="M296,105.51h-.47c-12.33,0-24.35,15.46-25.64,28.43-1.1,11,6.33,16.6,10.42,18a2.91,2.91,0,0,0,1.94-5.48c-.77-.28-7.47-3-6.57-12,1-10,10.95-23.2,19.86-23.2h.29a7.49,7.49,0,0,1,5.85,2.69,12,12,0,0,1,2.48,7.27,2.9,2.9,0,0,0,5.23,2.45c1.21-2,.45-7.24-1.59-11A13.43,13.43,0,0,0,296,105.51Zm8.4,15.22h0Z" transform="translate(-16 1.05)"/><path class="cls-9" d="M318.59,118.79h-.47c-12.33,0-24.35,15.46-25.65,28.43-1.1,11,6.33,16.6,10.42,18a2.91,2.91,0,0,0,1.94-5.48c-.77-.28-7.47-3-6.58-12,1-10,10.95-23.19,19.86-23.19h.29a7.49,7.49,0,0,1,5.86,2.69,11.94,11.94,0,0,1,2.48,7.27A2.91,2.91,0,0,0,332,137c1.21-2,.45-7.24-1.59-11A13.43,13.43,0,0,0,318.59,118.79ZM327,134h0Z" transform="translate(-16 1.05)"/><path class="cls-9" d="M341.75,132.59h-.47c-12.33,0-24.35,15.46-25.65,28.43-1.1,11,6.33,16.6,10.42,18a2.91,2.91,0,0,0,1.94-5.48c-.77-.28-7.47-3-6.58-12,1-10,10.95-23.2,19.86-23.2h.29a7.49,7.49,0,0,1,5.86,2.69,11.94,11.94,0,0,1,2.48,7.27,2.91,2.91,0,0,0,5.23,2.45c1.21-2,.45-7.24-1.59-11A13.44,13.44,0,0,0,341.75,132.59Zm8.4,15.22h0Z" transform="translate(-16 1.05)"/><path class="cls-9" d="M365.72,146.39h-.47c-12.33,0-24.35,15.46-25.64,28.43-1.1,11,6.33,16.6,10.42,18a2.86,2.86,0,0,0,1,.16,2.91,2.91,0,0,0,1-5.64c-.77-.28-7.47-3-6.58-12,1-10,10.95-23.19,19.86-23.19h.29a7.49,7.49,0,0,1,5.86,2.69,11.94,11.94,0,0,1,2.48,7.27,2.9,2.9,0,0,0,5.23,2.45c1.21-2,.45-7.24-1.59-11A13.43,13.43,0,0,0,365.72,146.39Zm8.4,15.22h0Z" transform="translate(-16 1.05)"/><path class="cls-9" d="M387.27,158.79h-.47c-12.33,0-24.35,15.46-25.65,28.43-1.1,11,6.33,16.6,10.42,18a2.91,2.91,0,0,0,1.94-5.48c-.77-.28-7.47-3-6.57-12,1-10,10.95-23.19,19.86-23.19h.29a7.49,7.49,0,0,1,5.86,2.69,11.94,11.94,0,0,1,2.48,7.27,2.91,2.91,0,0,0,5.23,2.45c1.21-2,.45-7.24-1.59-11A13.43,13.43,0,0,0,387.27,158.79Zm8.4,15.22h0Z" transform="translate(-16 1.05)"/><path class="cls-9" d="M410.39,172h-.47c-12.33,0-24.35,15.46-25.65,28.43-1.1,11,6.33,16.6,10.42,18a2.91,2.91,0,0,0,1.94-5.48c-.77-.28-7.47-3-6.58-12,1-10,10.95-23.19,19.86-23.19h.29a7.49,7.49,0,0,1,5.86,2.69,11.94,11.94,0,0,1,2.48,7.27,2.91,2.91,0,0,0,5.23,2.45c1.21-2,.45-7.24-1.59-11A13.42,13.42,0,0,0,410.39,172Zm8.4,15.22h0Z" transform="translate(-16 1.05)"/><path class="cls-1" d="M119.27,19.63a32.2,32.2,0,0,1,3.64-3.07l-4.51-2.62S117.86,21.11,119.27,19.63Z" transform="translate(-16 1.05)"/><polygon class="cls-1" points="125.51 29.7 126.76 32.36 129.49 33.41 131.48 31.86 126.76 29.12 125.51 29.7"/><polygon class="cls-1" points="149.83 44.91 151.2 45.8 153.06 44.36 151.2 43.29 149.83 44.91"/><polygon class="cls-1" points="171.74 57.1 173.5 59.68 176.01 57.66 172.9 55.86 171.74 57.1"/><polygon class="cls-1" points="194.32 71 197.83 73.32 200.02 71.58 195.89 69.19 194.32 71"/><path class="cls-1" d="M235.79,84l1.49-1.15-1.34-.78C235.06,82.25,235.79,84,235.79,84Z" transform="translate(-16 1.05)"/><polygon class="cls-1" points="240.27 98.24 242.62 99.16 244.75 97.5 241.17 95.43 240.27 98.24"/><polygon class="cls-1" points="262.69 109.86 265.46 112.9 267.87 110.9 264.41 108.9 262.69 109.86"/><path class="cls-1" d="M304.78,124.48,306.6,123l-2.54-1.47C301.4,122.61,304.78,124.48,304.78,124.48Z" transform="translate(-16 1.05)"/><polygon class="cls-1" points="309.7 137.01 312 139.29 314.06 137.67 310.7 135.72 309.7 137.01"/><path class="cls-1" d="M349.91,151.87l1.89.32,2.16-1.72-4.05-2.35C347.33,148.88,349.91,151.87,349.91,151.87Z" transform="translate(-16 1.05)"/><path class="cls-1" d="M373.8,164.2l1.56-1.23-1.48-1C372.85,162.26,373.8,164.2,373.8,164.2Z" transform="translate(-16 1.05)"/><polygon class="cls-1" points="376.56 177.3 380.3 178.98 382.32 177.34 379.42 175.55 376.56 177.3"/><polygon class="cls-1" points="401.22 192.43 405.64 194.76 408 192.12 402.24 188.77 401.22 192.43"/><path class="cls-10" d="M119.74,13.95v.78l3.17,1.84,2.68-1.69a15.3,15.3,0,0,0-.79-4.68Z" transform="translate(-16 1.05)"/><path class="cls-10" d="M145.08,29.41l2.4,1.39.72-.49a7.38,7.38,0,0,0,.34-3.14Z" transform="translate(-16 1.05)"/><path class="cls-10" d="M167.2,42.23l1.85,1.07A27.93,27.93,0,0,1,172.94,41l-.26-1.73A14.73,14.73,0,0,0,167.2,42.23Z" transform="translate(-16 1.05)"/><path class="cls-10" d="M188.9,54.81l3.12,1.8,2.69-1.69a17.31,17.31,0,0,0-.54-4.18C191.6,52.5,188.9,54.81,188.9,54.81Z" transform="translate(-16 1.05)"/><path class="cls-10" d="M213.17,68.87,216,70.52l1.56-1a12,12,0,0,0-.08-3.85C215.76,66.88,213.17,68.87,213.17,68.87Z" transform="translate(-16 1.05)"/><path class="cls-10" d="M235.94,81.66v.41l1.34.78a26.83,26.83,0,0,1,4.37-2.53,18.71,18.71,0,0,0-.42-2.29A17.76,17.76,0,0,0,235.94,81.66Z" transform="translate(-16 1.05)"/><path class="cls-10" d="M258.51,95.15l2.24,1.3,2.18-1.38a12.87,12.87,0,0,0-.07-2.52A35.39,35.39,0,0,0,258.51,95.15Z" transform="translate(-16 1.05)"/><path class="cls-10" d="M281.91,108.71l2,1.14,2.34-1.56a16,16,0,0,0-.32-3.31A47.33,47.33,0,0,0,281.91,108.71Z" transform="translate(-16 1.05)"/><path class="cls-10" d="M304.39,121.74,306.6,123c.85-.68,3.34-2.09,3.34-2.09a13.84,13.84,0,0,0-.42-3.46A63.51,63.51,0,0,0,304.39,121.74Z" transform="translate(-16 1.05)"/><path class="cls-10" d="M327.61,135.2l2.44,1.42,2.45-1.56a10.28,10.28,0,0,0-.21-3.45A58.16,58.16,0,0,0,327.61,135.2Z" transform="translate(-16 1.05)"/><path class="cls-10" d="M351.49,149l2.47,1.43,1.65-1.1a10.33,10.33,0,0,0-.14-3.94A40.34,40.34,0,0,0,351.49,149Z" transform="translate(-16 1.05)"/><path class="cls-10" d="M373.88,162l1.48,1a44.39,44.39,0,0,1,4.25-2.52,10.34,10.34,0,0,0-.49-2.68A22.58,22.58,0,0,0,373.88,162Z" transform="translate(-16 1.05)"/><path class="cls-10" d="M396.29,175l2,1.25c1.06-.75,2.91-1.88,2.91-1.88a13.54,13.54,0,0,0-.29-3.06A30.3,30.3,0,0,0,396.29,175Z" transform="translate(-16 1.05)"/></svg>