<svg xmlns="http://www.w3.org/2000/svg" viewBox="0 0 467.69 496.82"><defs><style>.cls-1{isolation:isolate;}.cls-2{fill:#ad8069;}.cls-3{fill:#7f7f7f;}.cls-4{fill:#3b0b00;}.cls-5{fill:#d3d3d3;}.cls-6{fill:#999;}.cls-7{fill:#1c3919;}.cls-8{fill:#fff;opacity:0.5;mix-blend-mode:overlay;}.cls-9{fill:#f6e9db;}</style></defs><title>ordi</title><g class="cls-1"><g id="Calque_1" data-name="Calque 1"><path class="cls-2" d="M331.06,91c-2.47-1.42-4.42-.27-4.42,2.56a9.74,9.74,0,0,0,4.42,7.69c2.48,1.42,4.42.27,4.42-2.56A9.73,9.73,0,0,0,331.06,91Z" transform="translate(-15.83 -0.18)"/><polygon class="cls-2" points="185.59 33.28 185.59 204.32 203.45 214.66 203.45 214.75 424.53 342.63 450.27 357.48 450.27 183.71 184.7 30.1 185.59 33.28"/><path class="cls-2" d="M468.4,379.86l.53-.35-.53.27Z" transform="translate(-15.83 -0.18)"/><path class="cls-3" d="M474.24,154.09,209.47.92a5.41,5.41,0,0,0-5.31-.09l-.09.09L193.9,6.76v.09a5,5,0,0,1,5.3,0L464,160a18.72,18.72,0,0,1,9.37,16.09V371.37a9.68,9.68,0,0,1-4.42,8.14l9.64-5.57a9.64,9.64,0,0,0,5-8.49V170.18A18.54,18.54,0,0,0,474.24,154.09Z" transform="translate(-15.83 -0.18)"/><path class="cls-4" d="M464,160,199.21,6.84a5,5,0,0,0-5.3,0,5.29,5.29,0,0,0-2.74,4.69V214.66a17.87,17.87,0,0,0,8.93,15.48L458.68,379.77a9.58,9.58,0,0,0,9.73,0l.53-.27a9.68,9.68,0,0,0,4.42-8.14V176.11A18.72,18.72,0,0,0,464,160ZM331.06,91a9.73,9.73,0,0,1,4.42,7.69c0,2.83-1.94,4-4.42,2.56a9.74,9.74,0,0,1-4.42-7.69C326.64,90.77,328.59,89.62,331.06,91Zm135,266.63L440.37,342.8,219.28,214.93v-.09L201.42,204.5l-3.89-2.21V28.51l3,1.77L466.1,183.89Z" transform="translate(-15.83 -0.18)"/><path class="cls-4" d="M331.06,91c-2.47-1.42-4.42-.27-4.42,2.56a9.74,9.74,0,0,0,4.42,7.69c2.48,1.42,4.42.27,4.42-2.56A9.73,9.73,0,0,0,331.06,91Z" transform="translate(-15.83 -0.18)"/><polygon class="cls-4" points="181.69 28.33 181.69 202.11 185.59 204.32 203.45 214.66 203.45 214.75 424.53 342.63 450.27 357.48 450.27 183.71 184.7 30.1 181.69 28.33"/><path class="cls-5" d="M466,383.71,189,223.77a10.13,10.13,0,0,0-2.91-1.11,14.43,14.43,0,0,0-6.62,0,10.2,10.2,0,0,0-2.9,1.11L18.39,315.67a6.24,6.24,0,0,0-1.91,1.68,3.24,3.24,0,0,0-.63,1.89v0c0,1.32.87,2.61,2.58,3.62l277,160a13.87,13.87,0,0,0,12.43,0L466,390.91a6.63,6.63,0,0,0,1.55-1.22,4.09,4.09,0,0,0,.37-.46,3,3,0,0,0,.26-.46,3.25,3.25,0,0,0,.35-1.43,3.83,3.83,0,0,0-1.45-2.84A7.5,7.5,0,0,0,466,383.71Z" transform="translate(-15.83 -0.18)"/><path class="cls-3" d="M468,389.23a4.09,4.09,0,0,1-.37.46,6.63,6.63,0,0,1-1.55,1.22L307.9,482.82a13.87,13.87,0,0,1-12.43,0l-277-160c-1.71-1-2.58-2.3-2.58-3.62l0,12.7c0,1.3.86,2.63,2.59,3.62l277,160a13.76,13.76,0,0,0,12.43,0L466,403.62c1.69-1,2.54-2.29,2.54-3.58l0-12.69a3.25,3.25,0,0,1-.35,1.43A3,3,0,0,1,468,389.23Z" transform="translate(-15.83 -0.18)"/><path class="cls-2" d="M468,389.23a3,3,0,0,0,.26-.46,4.31,4.31,0,0,1-.64.92A4.09,4.09,0,0,0,468,389.23Z" transform="translate(-15.83 -0.18)"/><path class="cls-4" d="M208.19,244.23l-12-6.92a4.53,4.53,0,0,0-4.14,0l-11.89,6.91a1.26,1.26,0,0,0,0,2.39l12,6.92a4.54,4.54,0,0,0,4.14,0l11.9-6.92A1.26,1.26,0,0,0,208.19,244.23Z" transform="translate(-15.83 -0.18)"/><path class="cls-4" d="M250.42,268.34l-12-6.92a4.55,4.55,0,0,0-4.15,0l-11.9,6.91a1.27,1.27,0,0,0,0,2.4l12,6.92a4.65,4.65,0,0,0,4.15,0l11.89-6.92A1.27,1.27,0,0,0,250.42,268.34Z" transform="translate(-15.83 -0.18)"/><path class="cls-4" d="M228.13,255.39l-12-6.92a4.54,4.54,0,0,0-4.14,0l-11.9,6.91a1.26,1.26,0,0,0,0,2.39l12,6.93a4.59,4.59,0,0,0,4.14,0l11.9-6.91A1.27,1.27,0,0,0,228.13,255.39Z" transform="translate(-15.83 -0.18)"/><path class="cls-4" d="M271.52,280.61l-12-6.93a4.57,4.57,0,0,0-4.14,0l-11.9,6.92c-1.14.66-1.13,1.73,0,2.39l12,6.92a4.57,4.57,0,0,0,4.13,0L271.53,283A1.26,1.26,0,0,0,271.52,280.61Z" transform="translate(-15.83 -0.18)"/><path class="cls-4" d="M292.31,292.57l-12-6.92a4.58,4.58,0,0,0-4.12,0l-11.92,6.92a1.26,1.26,0,0,0,0,2.39l12,6.92a4.54,4.54,0,0,0,4.14,0l11.9-6.91A1.27,1.27,0,0,0,292.31,292.57Z" transform="translate(-15.83 -0.18)"/><path class="cls-4" d="M313.12,304.56l-12-6.93a4.54,4.54,0,0,0-4.13,0l-11.91,6.91a1.26,1.26,0,0,0,0,2.39l12,6.92a4.5,4.5,0,0,0,4.15,0l11.89-6.91A1.26,1.26,0,0,0,313.12,304.56Z" transform="translate(-15.83 -0.18)"/><path class="cls-4" d="M209.11,269.53l-32.88-19a4.55,4.55,0,0,0-4.13,0l-11.9,6.91c-1.14.65-1.14,1.72,0,2.39l32.87,19a4.57,4.57,0,0,0,4.14,0l11.9-6.92A1.27,1.27,0,0,0,209.11,269.53Z" transform="translate(-15.83 -0.18)"/><path class="cls-4" d="M229,280.6l-12-6.92a4.53,4.53,0,0,0-4.13,0L201,280.59a1.26,1.26,0,0,0,0,2.39l12,6.92a4.56,4.56,0,0,0,4.15,0L229,283A1.26,1.26,0,0,0,229,280.6Z" transform="translate(-15.83 -0.18)"/><path class="cls-4" d="M251.48,293.52l-12-6.92a4.46,4.46,0,0,0-4.12,0l-11.92,6.9a1.27,1.27,0,0,0,0,2.4l12,6.92a4.52,4.52,0,0,0,4.13,0l11.91-6.92A1.26,1.26,0,0,0,251.48,293.52Z" transform="translate(-15.83 -0.18)"/><path class="cls-4" d="M272.37,305.58l-12-6.92a4.53,4.53,0,0,0-4.14,0l-11.9,6.92c-1.14.66-1.14,1.73,0,2.38l12,6.93a4.53,4.53,0,0,0,4.14,0l11.9-6.92C273.53,307.32,273.51,306.24,272.37,305.58Z" transform="translate(-15.83 -0.18)"/><path class="cls-4" d="M293.27,317.65l-12-6.92a4.51,4.51,0,0,0-4.11,0l-11.91,6.91a1.27,1.27,0,0,0,0,2.4l12,6.92a4.53,4.53,0,0,0,4.14,0l11.9-6.91A1.27,1.27,0,0,0,293.27,317.65Z" transform="translate(-15.83 -0.18)"/><path class="cls-4" d="M188.94,282.37l-32.88-19a4.51,4.51,0,0,0-4.13,0L140,270.28a1.27,1.27,0,0,0,0,2.39l32.88,19a4.63,4.63,0,0,0,4.15,0L189,284.76A1.26,1.26,0,0,0,188.94,282.37Z" transform="translate(-15.83 -0.18)"/><path class="cls-4" d="M209.85,293.32l-12-6.92a4.57,4.57,0,0,0-4.14,0l-11.9,6.92a1.27,1.27,0,0,0,0,2.4l12,6.92a4.59,4.59,0,0,0,4.14,0l11.9-6.92A1.26,1.26,0,0,0,209.85,293.32Z" transform="translate(-15.83 -0.18)"/><path class="cls-4" d="M231.43,306.07l-12-6.92a4.57,4.57,0,0,0-4.12,0l-11.9,6.91c-1.15.68-1.15,1.75,0,2.4l12,6.92a4.54,4.54,0,0,0,4.14,0l11.9-6.91A1.27,1.27,0,0,0,231.43,306.07Z" transform="translate(-15.83 -0.18)"/><path class="cls-4" d="M252.32,318.15l-12-6.92a4.52,4.52,0,0,0-4.13,0l-11.91,6.92a1.26,1.26,0,0,0,0,2.39l12,6.92a4.5,4.5,0,0,0,4.13,0l11.9-6.91A1.26,1.26,0,0,0,252.32,318.15Z" transform="translate(-15.83 -0.18)"/><path class="cls-4" d="M334,316.63l-12-6.93a4.59,4.59,0,0,0-4.14,0L306,316.62a1.26,1.26,0,0,0,0,2.39l12,6.92a4.49,4.49,0,0,0,4.12,0L334,319A1.27,1.27,0,0,0,334,316.63Z" transform="translate(-15.83 -0.18)"/><path class="cls-4" d="M314.17,329.72l-12-6.92a4.54,4.54,0,0,0-4.13,0l-11.91,6.92a1.26,1.26,0,0,0,0,2.38l12,6.93a4.57,4.57,0,0,0,4.13,0l11.91-6.92C315.32,331.46,315.32,330.39,314.17,329.72Z" transform="translate(-15.83 -0.18)"/><path class="cls-4" d="M273.22,330.22l-12-6.92a4.51,4.51,0,0,0-4.13,0l-11.91,6.91a1.27,1.27,0,0,0,0,2.4l12,6.92a4.68,4.68,0,0,0,4.15,0l11.89-6.92A1.26,1.26,0,0,0,273.22,330.22Z" transform="translate(-15.83 -0.18)"/><path class="cls-4" d="M294.13,342.29l-12-6.92a4.56,4.56,0,0,0-4.14,0l-11.91,6.92a1.27,1.27,0,0,0,0,2.39l12,6.92a4.53,4.53,0,0,0,4.14,0l11.9-6.92A1.26,1.26,0,0,0,294.13,342.29Z" transform="translate(-15.83 -0.18)"/><path class="cls-4" d="M190.88,306.28,137.1,275.22a4.57,4.57,0,0,0-4.13,0l-11.9,6.92a1.26,1.26,0,0,0,0,2.39l53.77,31.06a4.55,4.55,0,0,0,4.15,0l11.9-6.91C192,308,192,306.95,190.88,306.28Z" transform="translate(-15.83 -0.18)"/><path class="cls-4" d="M211.37,318.39l-12-6.91a4.58,4.58,0,0,0-4.13,0l-11.9,6.92a1.26,1.26,0,0,0,0,2.39l12,6.92a4.52,4.52,0,0,0,4.13,0l11.89-6.91A1.27,1.27,0,0,0,211.37,318.39Z" transform="translate(-15.83 -0.18)"/><path class="cls-4" d="M232.27,330.47l-12-6.92a4.5,4.5,0,0,0-4.13,0l-11.91,6.9a1.27,1.27,0,0,0,0,2.4l12,6.92a4.66,4.66,0,0,0,4.16,0l11.9-6.92A1.26,1.26,0,0,0,232.27,330.47Z" transform="translate(-15.83 -0.18)"/><path class="cls-4" d="M253.17,342.55l-12-6.93a4.51,4.51,0,0,0-4.12,0l-11.91,6.92a1.26,1.26,0,0,0,0,2.38l12,6.92a4.51,4.51,0,0,0,4.15,0l11.91-6.91A1.26,1.26,0,0,0,253.17,342.55Z" transform="translate(-15.83 -0.18)"/><path class="cls-4" d="M274.07,354.61l-12-6.92a4.63,4.63,0,0,0-4.14,0L246,354.61a1.26,1.26,0,0,0,0,2.39l12,6.92a4.6,4.6,0,0,0,4.14,0l11.9-6.92C275.22,356.35,275.22,355.28,274.07,354.61Z" transform="translate(-15.83 -0.18)"/><path class="cls-4" d="M354.93,328.71l-12-6.93a4.52,4.52,0,0,0-4.12,0l-11.91,6.91a1.26,1.26,0,0,0,0,2.39l12,6.92a4.51,4.51,0,0,0,4.12,0l11.9-6.91A1.26,1.26,0,0,0,354.93,328.71Z" transform="translate(-15.83 -0.18)"/><path class="cls-4" d="M335.07,341.81l-12-6.93a4.49,4.49,0,0,0-4.12,0l-11.91,6.91a1.27,1.27,0,0,0,0,2.4l12,6.92a4.59,4.59,0,0,0,4.14,0l11.9-6.92C336.23,343.53,336.22,342.47,335.07,341.81Z" transform="translate(-15.83 -0.18)"/><path class="cls-4" d="M315,354.37l-12-6.93a4.57,4.57,0,0,0-4.12,0L287,354.36a1.27,1.27,0,0,0,0,2.4l12,6.92a4.53,4.53,0,0,0,4.14,0l11.9-6.91A1.26,1.26,0,0,0,315,354.37Z" transform="translate(-15.83 -0.18)"/><path class="cls-4" d="M295,366.68l-12-6.92a4.54,4.54,0,0,0-4.14,0L267,366.68a1.25,1.25,0,0,0,0,2.38l12,6.92a4.55,4.55,0,0,0,4.13,0L295,369.08A1.26,1.26,0,0,0,295,366.68Z" transform="translate(-15.83 -0.18)"/><path class="cls-4" d="M149.88,305.69l-12-6.93a4.55,4.55,0,0,0-4.11,0l-11.92,6.92a1.27,1.27,0,0,0,0,2.4l12,6.91a4.56,4.56,0,0,0,4.15,0l11.9-6.91C151,307.42,151,306.35,149.88,305.69Z" transform="translate(-15.83 -0.18)"/><path class="cls-4" d="M131.19,294.22l-12-6.93a4.56,4.56,0,0,0-4.12,0l-11.92,6.92a1.27,1.27,0,0,0,0,2.4l12,6.91a4.55,4.55,0,0,0,4.15,0l11.9-6.91A1.26,1.26,0,0,0,131.19,294.22Z" transform="translate(-15.83 -0.18)"/><path class="cls-4" d="M170.78,317.75l-12-6.92a4.59,4.59,0,0,0-4.13,0l-11.91,6.91a1.27,1.27,0,0,0,0,2.4l12,6.93a4.58,4.58,0,0,0,4.13,0l11.91-6.92A1.27,1.27,0,0,0,170.78,317.75Z" transform="translate(-15.83 -0.18)"/><path class="cls-4" d="M275.28,378.12,179.7,322.91a4.55,4.55,0,0,0-4.13,0l-11.91,6.9a1.26,1.26,0,0,0,0,2.39l95.57,55.21a4.53,4.53,0,0,0,4.14,0l11.91-6.92A1.26,1.26,0,0,0,275.28,378.12Z" transform="translate(-15.83 -0.18)"/><path class="cls-4" d="M375.82,340.77l-12-6.92a4.58,4.58,0,0,0-4.15,0l-11.9,6.9a1.27,1.27,0,0,0,0,2.4l12,6.92a4.51,4.51,0,0,0,4.12,0l11.91-6.91C377,342.52,377,341.44,375.82,340.77Z" transform="translate(-15.83 -0.18)"/><path class="cls-4" d="M396.73,352.84l-12-6.92a4.52,4.52,0,0,0-4.13,0l-11.91,6.92c-1.13.66-1.12,1.73,0,2.4l12,6.9a4.55,4.55,0,0,0,4.13,0l11.91-6.91A1.27,1.27,0,0,0,396.73,352.84Z" transform="translate(-15.83 -0.18)"/><path class="cls-4" d="M438.53,377l-32.87-19a4.6,4.6,0,0,0-4.14,0l-11.9,6.92a1.26,1.26,0,0,0,0,2.38l32.88,19a4.53,4.53,0,0,0,4.13,0l11.89-6.9A1.27,1.27,0,0,0,438.53,377Z" transform="translate(-15.83 -0.18)"/><path class="cls-4" d="M356,353.87,344,347a4.53,4.53,0,0,0-4.14,0L328,353.87a1.26,1.26,0,0,0,0,2.38l12,6.92a4.57,4.57,0,0,0,4.14,0l11.9-6.91A1.27,1.27,0,0,0,356,353.87Z" transform="translate(-15.83 -0.18)"/><path class="cls-4" d="M376.88,365.94l-12-6.91a4.51,4.51,0,0,0-4.14,0l-11.9,6.92a1.26,1.26,0,0,0,0,2.39l12,6.92a4.58,4.58,0,0,0,4.13,0l11.91-6.91A1.27,1.27,0,0,0,376.88,365.94Z" transform="translate(-15.83 -0.18)"/><path class="cls-4" d="M397.78,378l-12-6.91a4.51,4.51,0,0,0-4.14,0L369.77,378c-1.14.66-1.13,1.73,0,2.39l12,6.93a4.58,4.58,0,0,0,4.12,0l11.91-6.93A1.26,1.26,0,0,0,397.78,378Z" transform="translate(-15.83 -0.18)"/><path class="cls-4" d="M418.67,390.09l-12-6.92a4.55,4.55,0,0,0-4.13,0l-11.9,6.92c-1.14.65-1.14,1.72,0,2.39l12,6.93a4.61,4.61,0,0,0,4.13,0l11.91-6.92A1.27,1.27,0,0,0,418.67,390.09Z" transform="translate(-15.83 -0.18)"/><path class="cls-4" d="M335.92,366.44l-12-6.93a4.57,4.57,0,0,0-4.13,0l-11.9,6.92a1.26,1.26,0,0,0,0,2.39l12,6.92a4.52,4.52,0,0,0,4.14,0l11.9-6.9A1.27,1.27,0,0,0,335.92,366.44Z" transform="translate(-15.83 -0.18)"/><path class="cls-4" d="M356.84,378.51l-12-6.92a4.59,4.59,0,0,0-4.14,0l-11.9,6.91a1.27,1.27,0,0,0,0,2.41l12,6.91a4.5,4.5,0,0,0,4.14,0l11.9-6.91A1.27,1.27,0,0,0,356.84,378.51Z" transform="translate(-15.83 -0.18)"/><path class="cls-4" d="M398.63,403.77l-32.88-19a4.45,4.45,0,0,0-4.13,0l-11.9,6.91a1.26,1.26,0,0,0,0,2.39l32.88,19a4.65,4.65,0,0,0,4.15,0l11.89-6.92A1.26,1.26,0,0,0,398.63,403.77Z" transform="translate(-15.83 -0.18)"/><path class="cls-4" d="M315.87,378.76l-12-6.92a4.57,4.57,0,0,0-4.14,0l-11.89,6.92a1.26,1.26,0,0,0,0,2.39l12,6.92a4.57,4.57,0,0,0,4.14,0l11.9-6.92A1.27,1.27,0,0,0,315.87,378.76Z" transform="translate(-15.83 -0.18)"/><path class="cls-4" d="M336.77,390.83l-12-6.92a4.59,4.59,0,0,0-4.15,0l-11.89,6.92a1.26,1.26,0,0,0,0,2.39l12,6.92a4.54,4.54,0,0,0,4.13,0l11.91-6.93C337.92,392.57,337.92,391.5,336.77,390.83Z" transform="translate(-15.83 -0.18)"/><path class="cls-4" d="M378.57,415l-32.87-19a4.58,4.58,0,0,0-4.13,0l-11.91,6.91a1.28,1.28,0,0,0,0,2.41l32.88,19c1.15.67,3.15,1.17,4.28.49l11.76-7.4C379.72,416.71,379.71,415.65,378.57,415Z" transform="translate(-15.83 -0.18)"/><path class="cls-4" d="M296.19,390.19l-12-6.92a4.57,4.57,0,0,0-4.11,0l-11.91,6.92a1.26,1.26,0,0,0,0,2.39l12,6.93a4.54,4.54,0,0,0,4.14,0l11.91-6.92A1.27,1.27,0,0,0,296.19,390.19Z" transform="translate(-15.83 -0.18)"/><path class="cls-4" d="M359.74,426.88l-32.87-19a4.57,4.57,0,0,0-4.14,0l-11.89,6.91a1.27,1.27,0,0,0,0,2.4l32.88,19a4.54,4.54,0,0,0,4.14,0l11.89-6.9A1.27,1.27,0,0,0,359.74,426.88Z" transform="translate(-15.83 -0.18)"/><path class="cls-4" d="M317.08,402.26l-12-6.91a4.53,4.53,0,0,0-4.14,0l-11.9,6.91a1.27,1.27,0,0,0,0,2.4l12,6.92a4.59,4.59,0,0,0,4.14,0l11.9-6.93A1.26,1.26,0,0,0,317.08,402.26Z" transform="translate(-15.83 -0.18)"/><path class="cls-6" d="M208.24,243.2l-12-6.92a4.52,4.52,0,0,0-4.14,0l-11.89,6.91a1.26,1.26,0,0,0,0,2.39l12,6.92a4.52,4.52,0,0,0,4.14,0l11.9-6.92A1.26,1.26,0,0,0,208.24,243.2Z" transform="translate(-15.83 -0.18)"/><path class="cls-6" d="M250.48,267.31l-12-6.92a4.56,4.56,0,0,0-4.15,0l-11.9,6.91a1.27,1.27,0,0,0,0,2.4l12,6.92a4.64,4.64,0,0,0,4.15,0l11.89-6.92A1.27,1.27,0,0,0,250.48,267.31Z" transform="translate(-15.83 -0.18)"/><path class="cls-6" d="M228.19,254.36l-12-6.92a4.54,4.54,0,0,0-4.14,0l-11.9,6.91a1.26,1.26,0,0,0,0,2.39l12,6.93a4.59,4.59,0,0,0,4.14,0l11.9-6.91A1.27,1.27,0,0,0,228.19,254.36Z" transform="translate(-15.83 -0.18)"/><path class="cls-6" d="M271.58,279.58l-12-6.93a4.56,4.56,0,0,0-4.14,0l-11.9,6.92c-1.14.66-1.13,1.73,0,2.39l12,6.92a4.58,4.58,0,0,0,4.13,0L271.59,282A1.26,1.26,0,0,0,271.58,279.58Z" transform="translate(-15.83 -0.18)"/><path class="cls-6" d="M292.37,291.54l-12-6.92a4.58,4.58,0,0,0-4.13,0l-11.92,6.92a1.26,1.26,0,0,0,0,2.39l12,6.92a4.53,4.53,0,0,0,4.14,0l11.9-6.91A1.27,1.27,0,0,0,292.37,291.54Z" transform="translate(-15.83 -0.18)"/><path class="cls-6" d="M313.18,303.53l-12-6.93a4.54,4.54,0,0,0-4.13,0l-11.91,6.91a1.26,1.26,0,0,0,0,2.39l12,6.92a4.49,4.49,0,0,0,4.15,0l11.89-6.91A1.26,1.26,0,0,0,313.18,303.53Z" transform="translate(-15.83 -0.18)"/><path class="cls-6" d="M209.16,268.5l-32.88-19a4.55,4.55,0,0,0-4.13,0l-11.9,6.91c-1.14.65-1.14,1.72,0,2.39l32.87,19a4.56,4.56,0,0,0,4.14,0l11.9-6.92A1.27,1.27,0,0,0,209.16,268.5Z" transform="translate(-15.83 -0.18)"/><path class="cls-6" d="M229.07,279.57l-12-6.92a4.53,4.53,0,0,0-4.14,0l-11.9,6.91a1.26,1.26,0,0,0,0,2.39l12,6.92a4.55,4.55,0,0,0,4.15,0L229.08,282A1.26,1.26,0,0,0,229.07,279.57Z" transform="translate(-15.83 -0.18)"/><path class="cls-6" d="M251.54,292.48l-12-6.92a4.47,4.47,0,0,0-4.12,0l-11.92,6.9a1.27,1.27,0,0,0,0,2.4l12,6.92a4.52,4.52,0,0,0,4.13,0l11.91-6.92A1.26,1.26,0,0,0,251.54,292.48Z" transform="translate(-15.83 -0.18)"/><path class="cls-6" d="M272.43,304.55l-12-6.92a4.53,4.53,0,0,0-4.14,0l-11.9,6.92c-1.14.66-1.14,1.73,0,2.38l12,6.93a4.52,4.52,0,0,0,4.14,0l11.9-6.92C273.59,306.29,273.57,305.21,272.43,304.55Z" transform="translate(-15.83 -0.18)"/><path class="cls-6" d="M293.33,316.62l-12-6.92a4.51,4.51,0,0,0-4.11,0l-11.91,6.91a1.27,1.27,0,0,0,0,2.4l12,6.92a4.53,4.53,0,0,0,4.13,0l11.9-6.91A1.27,1.27,0,0,0,293.33,316.62Z" transform="translate(-15.83 -0.18)"/><path class="cls-6" d="M189,281.34l-32.88-19a4.5,4.5,0,0,0-4.12,0l-11.9,6.91a1.27,1.27,0,0,0,0,2.39l32.88,19a4.62,4.62,0,0,0,4.15,0L189,283.73A1.26,1.26,0,0,0,189,281.34Z" transform="translate(-15.83 -0.18)"/><path class="cls-6" d="M209.91,292.29l-12-6.92a4.55,4.55,0,0,0-4.14,0l-11.9,6.92a1.27,1.27,0,0,0,0,2.4l12,6.92a4.59,4.59,0,0,0,4.14,0l11.9-6.92A1.26,1.26,0,0,0,209.91,292.29Z" transform="translate(-15.83 -0.18)"/><path class="cls-6" d="M231.48,305l-12-6.92a4.57,4.57,0,0,0-4.13,0L203.47,305c-1.15.68-1.15,1.75,0,2.4l12,6.92a4.54,4.54,0,0,0,4.14,0l11.9-6.91A1.27,1.27,0,0,0,231.48,305Z" transform="translate(-15.83 -0.18)"/><path class="cls-6" d="M252.37,317.12l-12-6.92a4.52,4.52,0,0,0-4.13,0l-11.91,6.92a1.27,1.27,0,0,0,0,2.39l12,6.92a4.5,4.5,0,0,0,4.14,0l11.9-6.91A1.26,1.26,0,0,0,252.37,317.12Z" transform="translate(-15.83 -0.18)"/><path class="cls-6" d="M334.09,315.6l-12-6.93a4.6,4.6,0,0,0-4.14,0l-11.9,6.92a1.26,1.26,0,0,0,0,2.39l12,6.92a4.5,4.5,0,0,0,4.12,0L334.1,318A1.27,1.27,0,0,0,334.09,315.6Z" transform="translate(-15.83 -0.18)"/><path class="cls-6" d="M314.23,328.7l-12-6.92a4.54,4.54,0,0,0-4.12,0L286.2,328.7a1.26,1.26,0,0,0,0,2.38l12,6.93a4.57,4.57,0,0,0,4.12,0l11.91-6.92C315.38,330.43,315.38,329.36,314.23,328.7Z" transform="translate(-15.83 -0.18)"/><path class="cls-6" d="M273.27,329.19l-12-6.92a4.51,4.51,0,0,0-4.13,0l-11.91,6.91a1.27,1.27,0,0,0,0,2.4l12,6.92a4.68,4.68,0,0,0,4.15,0l11.89-6.92A1.26,1.26,0,0,0,273.27,329.19Z" transform="translate(-15.83 -0.18)"/><path class="cls-6" d="M294.18,341.26l-12-6.92a4.56,4.56,0,0,0-4.13,0l-11.91,6.92a1.27,1.27,0,0,0,0,2.39l12,6.92a4.53,4.53,0,0,0,4.14,0l11.9-6.92A1.26,1.26,0,0,0,294.18,341.26Z" transform="translate(-15.83 -0.18)"/><path class="cls-6" d="M190.93,305.25l-53.78-31.07a4.57,4.57,0,0,0-4.13,0l-11.9,6.92a1.26,1.26,0,0,0,0,2.39l53.77,31.06a4.55,4.55,0,0,0,4.15,0l11.9-6.91C192.09,307,192.08,305.92,190.93,305.25Z" transform="translate(-15.83 -0.18)"/><path class="cls-6" d="M211.42,317.36l-12-6.91a4.58,4.58,0,0,0-4.13,0l-11.9,6.92a1.26,1.26,0,0,0,0,2.39l12,6.92a4.53,4.53,0,0,0,4.14,0l11.89-6.91A1.27,1.27,0,0,0,211.42,317.36Z" transform="translate(-15.83 -0.18)"/><path class="cls-6" d="M232.32,329.44l-12-6.92a4.51,4.51,0,0,0-4.12,0l-11.91,6.9a1.27,1.27,0,0,0,0,2.4l12,6.92a4.67,4.67,0,0,0,4.16,0l11.9-6.92A1.26,1.26,0,0,0,232.32,329.44Z" transform="translate(-15.83 -0.18)"/><path class="cls-6" d="M253.22,341.52l-12-6.93a4.52,4.52,0,0,0-4.13,0l-11.91,6.92a1.26,1.26,0,0,0,0,2.38l12,6.92a4.52,4.52,0,0,0,4.15,0l11.91-6.91A1.26,1.26,0,0,0,253.22,341.52Z" transform="translate(-15.83 -0.18)"/><path class="cls-6" d="M274.12,353.58l-12-6.92a4.62,4.62,0,0,0-4.14,0l-11.9,6.93a1.26,1.26,0,0,0,0,2.39l12,6.92a4.59,4.59,0,0,0,4.13,0l11.9-6.92C275.27,355.32,275.27,354.25,274.12,353.58Z" transform="translate(-15.83 -0.18)"/><path class="cls-6" d="M355,327.68l-12-6.93a4.52,4.52,0,0,0-4.12,0L327,327.67a1.26,1.26,0,0,0,0,2.39L339,337a4.52,4.52,0,0,0,4.12,0l11.9-6.91A1.26,1.26,0,0,0,355,327.68Z" transform="translate(-15.83 -0.18)"/><path class="cls-6" d="M335.13,340.78l-12-6.93a4.49,4.49,0,0,0-4.11,0l-11.91,6.91a1.27,1.27,0,0,0,0,2.4l12,6.92a4.59,4.59,0,0,0,4.14,0l11.9-6.92C336.29,342.5,336.28,341.43,335.13,340.78Z" transform="translate(-15.83 -0.18)"/><path class="cls-6" d="M315.08,353.34l-12-6.93a4.57,4.57,0,0,0-4.13,0l-11.91,6.92a1.27,1.27,0,0,0,0,2.4l12,6.92a4.53,4.53,0,0,0,4.14,0l11.9-6.91A1.26,1.26,0,0,0,315.08,353.34Z" transform="translate(-15.83 -0.18)"/><path class="cls-6" d="M295,365.65l-12-6.92a4.54,4.54,0,0,0-4.14,0L267,365.65a1.25,1.25,0,0,0,0,2.38L279,375a4.54,4.54,0,0,0,4.13,0L295,368C296.17,367.39,296.16,366.32,295,365.65Z" transform="translate(-15.83 -0.18)"/><path class="cls-6" d="M149.93,304.66l-12-6.93a4.55,4.55,0,0,0-4.11,0l-11.92,6.92a1.27,1.27,0,0,0,0,2.4l12,6.91a4.55,4.55,0,0,0,4.15,0L150,307A1.26,1.26,0,0,0,149.93,304.66Z" transform="translate(-15.83 -0.18)"/><path class="cls-6" d="M131.25,293.19l-12-6.93a4.55,4.55,0,0,0-4.11,0l-11.92,6.92a1.27,1.27,0,0,0,0,2.4l12,6.91a4.56,4.56,0,0,0,4.15,0l11.9-6.91C132.4,294.92,132.4,293.85,131.25,293.19Z" transform="translate(-15.83 -0.18)"/><path class="cls-6" d="M170.83,316.72l-12-6.92a4.6,4.6,0,0,0-4.13,0l-11.91,6.91a1.27,1.27,0,0,0,0,2.4l12,6.93a4.57,4.57,0,0,0,4.13,0l11.91-6.92A1.27,1.27,0,0,0,170.83,316.72Z" transform="translate(-15.83 -0.18)"/><path class="cls-6" d="M275.33,377.09l-95.57-55.22a4.54,4.54,0,0,0-4.13,0l-11.91,6.9a1.26,1.26,0,0,0,0,2.39l95.57,55.22a4.54,4.54,0,0,0,4.13,0l11.91-6.92A1.26,1.26,0,0,0,275.33,377.09Z" transform="translate(-15.83 -0.18)"/><path class="cls-6" d="M375.88,339.74l-12-6.92a4.59,4.59,0,0,0-4.15,0l-11.9,6.9a1.27,1.27,0,0,0,0,2.4l12,6.92a4.51,4.51,0,0,0,4.13,0l11.91-6.91C377,341.49,377,340.41,375.88,339.74Z" transform="translate(-15.83 -0.18)"/><path class="cls-6" d="M396.79,351.81l-12-6.92a4.53,4.53,0,0,0-4.13,0l-11.91,6.92c-1.13.66-1.12,1.73,0,2.4l12,6.9a4.55,4.55,0,0,0,4.13,0l11.91-6.91A1.27,1.27,0,0,0,396.79,351.81Z" transform="translate(-15.83 -0.18)"/><path class="cls-6" d="M438.59,376l-32.87-19a4.6,4.6,0,0,0-4.14,0l-11.9,6.92a1.26,1.26,0,0,0,0,2.38l32.88,19a4.54,4.54,0,0,0,4.14,0l11.89-6.9A1.27,1.27,0,0,0,438.59,376Z" transform="translate(-15.83 -0.18)"/><path class="cls-6" d="M356,352.84l-12-6.92a4.53,4.53,0,0,0-4.14,0L328,352.84a1.25,1.25,0,0,0,0,2.38l12,6.92a4.55,4.55,0,0,0,4.14,0l11.9-6.91A1.27,1.27,0,0,0,356,352.84Z" transform="translate(-15.83 -0.18)"/><path class="cls-6" d="M376.94,364.91,365,358a4.51,4.51,0,0,0-4.14,0l-11.9,6.92a1.26,1.26,0,0,0,0,2.39l12,6.92a4.58,4.58,0,0,0,4.13,0l11.91-6.91A1.27,1.27,0,0,0,376.94,364.91Z" transform="translate(-15.83 -0.18)"/><path class="cls-6" d="M397.84,377l-12-6.91a4.51,4.51,0,0,0-4.14,0L369.83,377c-1.14.66-1.13,1.72,0,2.39l12,6.93a4.57,4.57,0,0,0,4.13,0l11.91-6.93A1.26,1.26,0,0,0,397.84,377Z" transform="translate(-15.83 -0.18)"/><path class="cls-6" d="M418.73,389.06l-12-6.92a4.54,4.54,0,0,0-4.13,0l-11.9,6.92a1.26,1.26,0,0,0,0,2.39l12,6.93a4.6,4.6,0,0,0,4.13,0l11.91-6.92A1.27,1.27,0,0,0,418.73,389.06Z" transform="translate(-15.83 -0.18)"/><path class="cls-6" d="M336,365.41l-12-6.93a4.58,4.58,0,0,0-4.13,0L308,365.4a1.26,1.26,0,0,0,0,2.39l12,6.92a4.54,4.54,0,0,0,4.14,0l11.9-6.9A1.27,1.27,0,0,0,336,365.41Z" transform="translate(-15.83 -0.18)"/><path class="cls-6" d="M356.89,377.48l-12-6.92a4.59,4.59,0,0,0-4.14,0l-11.9,6.91a1.27,1.27,0,0,0,0,2.41l12,6.91a4.5,4.5,0,0,0,4.14,0l11.9-6.91A1.27,1.27,0,0,0,356.89,377.48Z" transform="translate(-15.83 -0.18)"/><path class="cls-6" d="M398.68,402.74l-32.88-19a4.44,4.44,0,0,0-4.12,0l-11.9,6.91a1.26,1.26,0,0,0,0,2.39l32.88,19a4.65,4.65,0,0,0,4.15,0l11.89-6.92A1.26,1.26,0,0,0,398.68,402.74Z" transform="translate(-15.83 -0.18)"/><path class="cls-6" d="M315.92,377.73l-12-6.92a4.56,4.56,0,0,0-4.14,0l-11.89,6.92a1.26,1.26,0,0,0,0,2.39l12,6.92a4.57,4.57,0,0,0,4.14,0l11.9-6.92A1.26,1.26,0,0,0,315.92,377.73Z" transform="translate(-15.83 -0.18)"/><path class="cls-6" d="M336.82,389.8l-12-6.92a4.59,4.59,0,0,0-4.15,0l-11.89,6.92a1.26,1.26,0,0,0,0,2.39l12,6.92a4.53,4.53,0,0,0,4.13,0l11.91-6.93C338,391.54,338,390.47,336.82,389.8Z" transform="translate(-15.83 -0.18)"/><path class="cls-6" d="M378.62,413.94l-32.87-19a4.57,4.57,0,0,0-4.13,0l-11.91,6.91a1.28,1.28,0,0,0,0,2.41l32.88,19c1.15.67,3.14,1.17,4.28.49l11.76-7.4C379.77,415.69,379.76,414.62,378.62,413.94Z" transform="translate(-15.83 -0.18)"/><path class="cls-6" d="M296.24,389.16l-12-6.92a4.59,4.59,0,0,0-4.11,0l-11.91,6.92a1.26,1.26,0,0,0,0,2.39l12,6.93a4.54,4.54,0,0,0,4.14,0l11.91-6.92A1.27,1.27,0,0,0,296.24,389.16Z" transform="translate(-15.83 -0.18)"/><path class="cls-6" d="M359.8,425.85l-32.87-19a4.56,4.56,0,0,0-4.14,0l-11.89,6.91a1.27,1.27,0,0,0,0,2.4l32.88,19a4.53,4.53,0,0,0,4.14,0l11.89-6.9A1.27,1.27,0,0,0,359.8,425.85Z" transform="translate(-15.83 -0.18)"/><path class="cls-6" d="M317.13,401.23l-12-6.91a4.54,4.54,0,0,0-4.14,0l-11.9,6.91a1.27,1.27,0,0,0,0,2.4l12,6.92a4.6,4.6,0,0,0,4.14,0l11.9-6.93C318.28,403,318.28,401.9,317.13,401.23Z" transform="translate(-15.83 -0.18)"/><polygon class="cls-7" points="181.69 28.33 181.69 202.11 185.59 204.32 203.45 214.66 203.45 214.75 424.53 342.63 450.27 357.48 450.27 183.71 184.7 30.1 181.69 28.33"/><path class="cls-6" d="M247.93,390.68l-82.3-47.52a4.26,4.26,0,0,0-3.85,0l-36.14,21a1.19,1.19,0,0,0,0,2.25l82.3,47.51a4.25,4.25,0,0,0,3.85,0l36.15-21A1.18,1.18,0,0,0,247.93,390.68Z" transform="translate(-15.83 -0.18)"/><polygon class="cls-8" points="181.69 28.33 181.69 202.11 185.59 201.84 203.45 200.6 239.09 198.22 265.18 196.36 311.6 193.17 316.56 192.91 318.59 192.73 322.39 192.47 325.58 192.29 331.15 191.85 333 191.76 334.6 191.67 349.72 190.61 354.76 190.25 359.09 189.99 371.12 189.11 374.31 188.93 378.2 188.66 400.84 187.07 414.45 186.19 418.88 185.83 450.27 183.71 184.7 30.1 181.69 28.33"/><path class="cls-9" d="M331.06,91c-2.47-1.42-4.42-.27-4.42,2.56a9.74,9.74,0,0,0,4.42,7.69c2.48,1.42,4.42.27,4.42-2.56A9.73,9.73,0,0,0,331.06,91Z" transform="translate(-15.83 -0.18)"/></g></g></svg>